<?xml version="1.0" standalone="no"?>
<!DOCTYPE svg PUBLIC "-//W3C//DTD SVG 20010904//EN"
 "http://www.w3.org/TR/2001/REC-SVG-20010904/DTD/svg10.dtd">
<svg version="1.0" xmlns="http://www.w3.org/2000/svg"
 width="1284.000000pt" height="1284.000000pt" viewBox="0 0 1284.000000 1284.000000"
 preserveAspectRatio="xMidYMid meet">
<metadata>
Created by potrace 1.14, written by Peter Selinger 2001-2017
</metadata>
<g transform="translate(0.000000,1284.000000) scale(0.100000,-0.100000)"
fill="#000000" stroke="none">
<path d="M6161 12324 c-1 -8 -40 -14 -113 -18 -187 -10 -326 -22 -348 -30 -15
-5 -100 -14 -172 -17 -21 -1 -38 -5 -38 -9 0 -4 -23 -8 -51 -9 -28 -1 -70 -6
-93 -12 -22 -5 -52 -11 -66 -13 -14 -2 -36 -7 -50 -10 -14 -4 -45 -11 -70 -16
-25 -5 -56 -12 -70 -15 -14 -3 -34 -7 -45 -9 -11 -2 -40 -9 -65 -16 -25 -7
-52 -14 -60 -15 -8 -1 -42 -10 -75 -19 -33 -9 -67 -18 -75 -20 -47 -12 -406
-134 -450 -153 -8 -4 -19 -8 -25 -8 -5 -1 -23 -7 -40 -14 -41 -16 -49 -18 -59
-19 -5 0 -12 -4 -15 -9 -3 -5 -28 -17 -56 -28 -27 -10 -83 -33 -123 -51 -41
-19 -78 -34 -83 -34 -5 0 -9 -4 -9 -10 0 -5 -7 -10 -16 -10 -23 0 -376 -178
-382 -192 -2 -4 -9 -8 -17 -8 -7 0 -18 -7 -25 -15 -7 -8 -16 -12 -21 -10 -4 3
-12 -3 -18 -12 -6 -10 -11 -14 -11 -10 0 4 -20 -6 -44 -23 -25 -16 -48 -30
-51 -30 -4 0 -28 -15 -54 -34 -25 -18 -56 -36 -68 -40 -11 -4 -24 -13 -27 -21
-3 -8 -12 -15 -19 -15 -8 0 -26 -11 -41 -25 -14 -13 -26 -22 -26 -20 0 4 -72
-46 -210 -147 -25 -18 -73 -55 -107 -82 -34 -26 -65 -49 -69 -50 -5 0 -17 -10
-29 -21 -52 -50 -118 -105 -127 -105 -5 0 -6 -4 -3 -10 3 -5 1 -10 -5 -10 -6
0 -24 -13 -40 -30 -16 -16 -32 -30 -35 -30 -4 0 -23 -17 -44 -37 -38 -39 -134
-122 -155 -135 -6 -4 -8 -8 -5 -8 9 0 -144 -150 -154 -150 -4 0 -6 -4 -3 -9 3
-5 -4 -11 -16 -14 -12 -4 -19 -9 -16 -12 4 -4 -1 -15 -10 -24 -45 -48 -101
-111 -98 -111 2 0 -10 -15 -27 -33 -18 -18 -41 -44 -52 -57 -47 -59 -110 -135
-115 -140 -3 -3 -28 -34 -55 -70 -26 -36 -55 -71 -63 -77 -9 -7 -13 -13 -9
-13 6 0 -13 -26 -40 -55 -7 -8 -13 -18 -13 -24 0 -6 -4 -11 -9 -11 -5 0 -13
-9 -16 -20 -3 -11 -12 -26 -18 -32 -21 -22 -61 -82 -63 -94 -1 -7 -11 -21 -23
-33 -12 -12 -21 -28 -21 -36 0 -8 -4 -15 -8 -15 -5 0 -17 -17 -28 -37 -10 -21
-27 -46 -37 -57 -9 -11 -17 -25 -17 -32 0 -7 -4 -14 -8 -16 -8 -3 -39 -53 -80
-128 -13 -25 -40 -73 -59 -107 -19 -35 -32 -63 -28 -63 3 0 -1 -7 -9 -16 -9
-8 -16 -22 -16 -30 0 -8 -4 -14 -10 -14 -5 0 -12 -11 -16 -25 -3 -14 -10 -25
-15 -25 -5 0 -6 -7 -3 -15 4 -8 1 -15 -5 -15 -6 0 -11 -4 -11 -9 0 -5 -10 -30
-22 -57 -12 -27 -21 -52 -20 -56 1 -5 -3 -8 -9 -8 -5 0 -7 -4 -4 -10 3 -5 3
-10 -2 -10 -4 0 -14 -15 -22 -32 -7 -18 -19 -45 -27 -61 -9 -20 -9 -26 -1 -21
7 3 4 -1 -6 -9 -10 -8 -20 -25 -22 -37 -2 -12 -9 -27 -14 -34 -5 -6 -12 -28
-16 -48 -4 -22 -11 -35 -18 -31 -6 4 -8 -4 -5 -20 3 -15 2 -24 -2 -22 -4 3
-10 -5 -13 -18 -3 -12 -15 -47 -27 -77 -12 -30 -24 -64 -27 -75 -3 -11 -11
-34 -19 -52 -8 -17 -13 -35 -12 -40 1 -4 -6 -26 -16 -48 -9 -22 -20 -52 -23
-67 -3 -16 -9 -28 -12 -28 -4 0 -6 -13 -5 -30 1 -16 -2 -30 -7 -30 -5 0 -9 -9
-9 -19 0 -11 -4 -22 -9 -25 -5 -3 -7 -15 -4 -26 3 -11 0 -20 -6 -20 -6 0 -10
-3 -9 -7 4 -17 -15 -103 -22 -103 -5 0 -7 -8 -5 -17 1 -10 -2 -24 -8 -30 -5
-7 -7 -13 -4 -13 3 0 0 -21 -8 -47 -8 -25 -12 -50 -9 -55 3 -4 1 -8 -4 -8 -8
0 -24 -88 -23 -132 0 -10 -5 -18 -10 -18 -5 0 -9 -12 -9 -27 1 -16 -4 -53 -10
-83 -6 -30 -12 -72 -15 -94 -2 -21 -7 -48 -11 -60 -4 -11 -6 -36 -6 -53 1 -18
-2 -33 -6 -33 -4 0 -8 -24 -9 -53 -1 -28 -4 -65 -7 -82 -3 -16 -6 -60 -7 -97
-1 -38 -5 -68 -8 -68 -3 0 -7 -39 -9 -88 -6 -154 -4 -765 2 -837 14 -161 17
-182 22 -220 3 -22 8 -58 10 -80 4 -41 7 -68 20 -145 4 -25 7 -54 8 -65 0 -11
3 -22 7 -25 3 -3 9 -30 12 -60 3 -30 8 -66 12 -80 3 -14 7 -36 10 -50 2 -14 9
-47 15 -75 6 -27 13 -61 15 -75 2 -14 11 -49 19 -79 8 -30 13 -58 10 -63 -3
-4 0 -8 7 -8 7 0 10 -2 7 -5 -3 -3 7 -48 22 -100 15 -52 25 -97 22 -100 -3 -3
0 -5 7 -5 7 0 11 -7 8 -15 -4 -8 -2 -17 2 -19 5 -3 11 -19 14 -36 4 -16 7 -32
8 -35 0 -2 9 -28 20 -57 24 -62 24 -63 34 -105 4 -18 11 -33 16 -33 5 0 8 -3
7 -7 0 -5 1 -15 5 -23 9 -24 20 -74 19 -82 -1 -5 2 -8 6 -8 5 0 15 -19 22 -42
8 -24 15 -45 16 -48 1 -3 5 -15 9 -27 4 -13 11 -23 16 -23 5 0 8 -3 7 -7 -3
-14 14 -63 21 -63 4 0 8 -6 8 -12 0 -7 8 -31 18 -53 10 -22 19 -42 20 -45 0
-3 11 -26 23 -52 12 -26 22 -52 22 -57 0 -6 5 -11 11 -11 5 0 7 -4 4 -10 -3
-5 -1 -10 4 -10 6 0 11 -9 11 -20 0 -11 5 -20 11 -20 5 0 8 -4 4 -9 -3 -5 -1
-12 5 -16 6 -4 8 -11 5 -16 -4 -5 -1 -9 4 -9 6 0 11 -7 11 -15 0 -8 4 -15 9
-15 5 0 12 -12 15 -26 4 -14 18 -43 32 -65 13 -22 38 -65 55 -97 39 -74 52
-95 64 -104 6 -4 7 -8 2 -8 -7 0 19 -47 33 -60 3 -3 14 -22 25 -42 11 -21 24
-38 29 -38 5 0 7 -3 3 -6 -6 -6 58 -104 75 -115 6 -3 10 -10 10 -15 1 -21 11
-33 22 -27 6 3 8 3 4 -2 -8 -9 22 -65 34 -65 4 0 8 -5 8 -10 0 -9 42 -69 119
-170 11 -14 21 -29 22 -35 2 -5 16 -22 31 -37 14 -14 24 -29 21 -32 -4 -3 2
-6 12 -6 10 0 16 -3 12 -6 -3 -4 -1 -12 6 -20 7 -7 21 -25 32 -40 31 -40 77
-93 113 -130 17 -19 32 -36 32 -38 0 -6 94 -108 208 -223 61 -63 112 -119 112
-124 0 -5 4 -9 8 -9 5 0 46 -35 91 -78 83 -78 97 -90 185 -165 27 -23 59 -52
72 -64 13 -13 26 -23 30 -23 4 0 15 -10 25 -22 11 -11 19 -17 19 -13 0 4 8 -1
18 -12 9 -11 27 -23 40 -27 13 -5 21 -10 18 -13 -3 -3 18 -21 45 -40 27 -18
59 -42 70 -51 11 -9 22 -16 25 -14 3 2 14 -8 25 -22 11 -15 27 -26 35 -26 8 0
14 -4 14 -8 0 -5 11 -14 25 -20 13 -6 32 -19 42 -28 10 -9 63 -45 118 -80 55
-35 105 -68 112 -74 7 -5 15 -10 19 -10 7 0 105 -60 114 -70 3 -3 28 -16 55
-30 28 -14 52 -28 53 -33 2 -4 8 -5 13 -1 5 3 9 0 9 -6 0 -6 4 -8 10 -5 5 3
10 2 10 -4 0 -10 38 -27 53 -23 4 1 7 -2 7 -7 0 -10 140 -81 158 -81 6 0 12
-4 14 -8 3 -9 114 -63 135 -66 7 -1 19 -8 25 -14 7 -7 15 -12 20 -12 4 0 33
-12 65 -27 32 -15 64 -26 71 -25 6 2 12 -2 12 -8 0 -5 3 -9 8 -8 4 0 15 -2 25
-5 9 -4 25 -10 35 -14 9 -3 20 -5 25 -5 4 1 7 -3 7 -9 0 -5 4 -8 9 -4 5 3 16
-1 24 -9 8 -8 17 -13 20 -10 3 3 19 -2 36 -11 17 -8 31 -12 31 -8 0 5 4 3 8
-3 7 -11 205 -78 218 -74 4 1 10 -3 13 -9 4 -5 18 -12 31 -14 14 -3 37 -10 53
-16 15 -6 27 -9 27 -6 0 2 15 -2 34 -10 32 -14 77 -25 104 -27 6 -1 12 -4 12
-8 0 -4 6 -7 13 -8 6 0 23 -3 37 -6 35 -8 94 -20 102 -21 3 0 10 -3 14 -7 4
-5 18 -8 31 -8 13 0 23 -3 23 -7 0 -5 19 -9 43 -10 45 -3 63 -6 87 -16 17 -7
117 -26 170 -33 19 -2 44 -6 55 -8 88 -14 116 -17 155 -20 25 -2 45 -5 45 -6
0 -2 36 -6 145 -16 36 -4 70 -11 77 -16 7 -5 14 -5 17 1 4 6 12 8 19 6 36 -11
216 -18 487 -17 325 0 489 6 610 22 41 5 98 12 125 14 28 3 60 7 72 10 12 2
53 7 90 11 37 3 79 8 93 12 30 7 65 13 101 17 14 1 31 6 37 10 7 4 12 5 12 2
0 -2 15 0 33 5 17 6 46 13 62 15 41 7 57 10 75 17 8 3 31 8 50 12 44 7 61 11
80 17 8 3 62 18 120 33 58 15 112 29 120 33 8 3 17 6 20 7 3 1 12 4 20 7 46
18 226 72 233 70 4 -1 7 2 7 8 0 6 3 9 8 8 4 -1 23 4 42 11 19 8 38 15 43 16
4 1 9 4 12 5 3 1 8 3 13 4 45 12 92 31 92 38 0 4 7 8 15 8 9 0 32 7 53 17 20
9 39 17 42 18 3 0 27 11 54 23 27 12 50 22 52 22 3 0 64 29 138 64 73 35 143
67 155 71 12 3 18 11 15 17 -5 7 -1 9 9 5 8 -3 20 0 26 7 6 7 35 23 66 36 30
13 55 27 55 32 0 4 6 8 13 8 7 0 29 11 50 25 20 14 37 23 37 19 0 -4 10 2 23
14 12 11 29 22 37 24 8 2 23 11 34 21 11 9 26 17 33 17 7 0 13 3 13 8 0 4 21
18 48 32 26 14 53 30 60 37 7 7 18 13 23 13 6 0 7 5 3 12 -5 8 -2 9 9 5 10 -3
17 -2 17 3 0 6 7 10 15 10 8 0 15 4 15 9 0 5 8 12 18 15 10 4 27 14 38 24 10
9 43 32 71 51 29 18 50 37 47 42 -3 5 -2 8 3 7 14 -4 65 29 108 70 8 6 17 12
22 12 4 0 14 9 21 20 7 12 17 18 21 15 5 -3 11 -1 13 4 3 9 104 91 112 91 3 0
23 19 46 42 22 23 40 38 40 33 0 -4 16 8 35 28 20 21 38 37 40 37 5 0 86 74
172 156 29 29 53 58 53 65 0 7 2 10 5 7 5 -5 95 74 90 80 -2 2 20 27 49 56 66
69 136 147 136 151 0 2 17 21 38 42 20 21 51 56 67 77 41 53 62 78 78 96 7 8
27 33 43 55 16 22 35 44 41 48 7 4 13 15 13 23 0 8 5 12 10 9 6 -3 10 0 10 8
0 7 13 28 30 47 16 18 27 37 24 41 -3 5 -1 9 5 9 5 0 24 22 42 50 18 28 37 50
42 50 6 0 7 3 4 6 -4 4 7 24 23 44 17 21 30 41 30 44 0 7 101 160 120 184 6 7
8 17 4 24 -4 6 -3 8 3 5 10 -6 40 50 35 66 -1 4 2 7 8 7 5 0 17 15 26 33 9 17
21 35 26 38 5 3 9 8 9 10 -2 14 13 49 21 49 5 0 8 6 6 12 -3 7 0 18 6 25 28
32 36 43 31 43 -3 0 6 18 20 40 14 22 25 46 25 55 0 8 4 15 9 15 7 0 22 36 20
49 0 2 3 7 8 10 4 3 22 35 38 71 17 36 33 66 37 68 4 2 4 10 1 18 -3 8 0 14 6
14 6 0 10 3 9 8 -1 4 5 23 14 42 23 50 31 74 30 83 -1 4 2 7 7 7 5 0 13 15 17
32 3 18 13 43 21 55 9 13 12 23 9 23 -4 0 -1 10 6 22 7 13 12 26 13 30 0 3 3
10 8 14 4 4 7 16 7 26 0 10 7 30 16 43 9 13 17 32 19 42 2 10 4 18 5 18 1 0 3
7 5 15 2 8 9 29 16 45 7 17 11 34 10 39 -1 4 4 14 10 22 6 8 9 14 6 14 -3 0 3
23 14 51 10 29 16 56 13 60 -3 5 -1 9 4 9 5 0 13 20 16 45 4 25 12 45 17 45 5
0 9 6 8 12 -3 21 13 98 20 98 4 0 8 10 8 23 1 12 6 40 13 62 16 58 20 77 25
105 6 34 13 65 15 65 1 0 3 11 5 25 1 14 5 34 8 45 16 62 27 118 33 165 3 19
9 62 15 95 5 33 10 79 11 103 0 23 4 42 8 42 4 0 8 30 9 68 1 37 4 76 8 87 3
10 6 54 6 97 0 43 3 78 7 78 3 0 7 38 9 85 1 47 5 96 7 108 8 34 7 383 0 457
-4 36 -7 105 -8 155 0 49 -3 94 -6 100 -4 5 -8 35 -9 65 -1 30 -7 98 -13 150
-6 52 -12 114 -13 137 -1 23 -6 45 -10 49 -4 4 -7 31 -7 61 0 29 -4 53 -8 53
-4 0 -7 15 -7 33 1 17 -2 37 -7 43 -5 7 -8 16 -6 20 4 16 -14 99 -24 112 -6 6
-8 12 -5 12 2 0 -2 28 -10 63 -8 34 -16 77 -16 95 -1 17 -5 32 -8 32 -6 0 -20
44 -24 75 -1 13 -17 86 -22 103 -1 6 -4 18 -6 25 -1 6 -5 17 -9 22 -12 20 -36
113 -31 119 4 3 1 6 -5 6 -7 0 -12 9 -12 19 0 11 -5 32 -12 48 -6 15 -12 30
-13 33 -11 37 -48 146 -64 186 -11 29 -17 54 -14 58 4 3 1 6 -5 6 -7 0 -12 9
-12 19 0 11 -6 26 -13 33 -8 7 -12 18 -10 25 2 6 -1 14 -6 18 -6 3 -11 12 -11
20 0 8 -5 26 -12 42 -6 15 -11 31 -10 36 1 4 -3 7 -8 7 -6 0 -10 4 -10 9 0 5
-5 22 -12 38 -13 33 -12 30 -22 66 -5 15 -12 27 -17 27 -5 0 -9 5 -9 11 0 13
-41 103 -50 109 -4 3 -10 17 -13 32 -4 15 -15 34 -25 44 -9 10 -15 18 -13 18
9 2 -11 46 -21 46 -6 0 -8 3 -5 7 4 3 -7 31 -25 62 -17 31 -39 71 -50 89 -10
17 -27 49 -39 70 -12 20 -26 43 -31 50 -6 6 -7 12 -2 12 5 0 3 4 -4 9 -12 7
-24 26 -73 119 -13 23 -27 42 -31 42 -4 0 -8 7 -8 15 0 9 -7 18 -15 21 -8 4
-15 12 -15 18 0 7 -8 21 -19 32 -10 11 -22 30 -26 43 -3 12 -17 32 -29 44 -12
12 -22 24 -22 27 1 9 -87 130 -94 130 -4 0 -10 9 -13 21 -3 12 -10 18 -17 14
-6 -3 -10 -3 -9 2 3 14 -14 47 -33 64 -10 9 -18 20 -18 23 0 4 -6 13 -12 21
-7 7 -26 30 -43 50 -16 20 -40 47 -53 61 -13 13 -20 24 -17 24 3 0 -9 15 -27
34 -45 47 -88 96 -88 100 0 3 -91 102 -191 207 -30 33 -54 61 -51 63 2 2 -6 7
-17 11 -12 3 -21 13 -21 21 0 8 -7 14 -16 14 -8 0 -12 5 -9 10 3 6 3 10 -2 10
-4 0 -22 14 -40 30 -18 17 -34 30 -37 30 -3 0 -23 18 -44 40 -22 21 -42 36
-46 33 -3 -4 -6 1 -6 10 0 10 -3 17 -7 17 -5 0 -26 16 -48 36 -22 19 -52 46
-67 60 -15 13 -30 24 -33 24 -3 0 -13 8 -23 18 -10 9 -35 31 -57 47 -21 17
-47 38 -57 48 -10 9 -18 14 -18 10 0 -3 -8 4 -19 15 -10 12 -22 22 -26 22 -5
0 -15 7 -24 15 -35 33 -79 65 -90 65 -6 0 -11 4 -11 8 0 4 -12 15 -27 24 -16
9 -39 26 -53 37 -50 41 -96 72 -106 70 -4 0 -10 3 -13 8 -3 4 -23 19 -43 33
-21 14 -38 29 -38 33 0 5 -4 6 -9 3 -5 -3 -14 1 -21 9 -7 8 -18 15 -26 15 -7
0 -17 8 -23 18 -5 9 -11 15 -14 12 -5 -7 -77 33 -77 42 0 5 -5 8 -11 8 -6 0
-24 9 -40 21 -16 11 -29 17 -29 12 0 -4 -7 1 -15 11 -8 11 -15 17 -15 13 0 -3
-21 6 -47 21 -27 15 -74 40 -105 56 -32 16 -58 33 -58 38 0 5 -5 6 -11 3 -5
-4 -18 0 -27 8 -9 9 -29 19 -44 22 -16 4 -28 11 -28 16 0 5 -3 8 -7 7 -5 -1
-35 11 -68 26 -138 65 -183 85 -242 107 -35 13 -63 27 -63 31 0 5 -10 8 -23 8
-12 0 -32 7 -44 15 -12 9 -26 15 -30 14 -4 -1 -21 3 -38 10 -55 23 -239 87
-277 97 -5 1 -9 2 -10 4 -2 1 -10 3 -18 5 -8 2 -55 15 -105 30 -49 15 -101 29
-115 31 -14 3 -34 8 -45 11 -32 11 -48 14 -82 20 -18 3 -33 8 -33 12 0 3 -12
7 -27 7 -16 1 -39 4 -53 8 -14 3 -47 10 -75 16 -27 5 -60 12 -72 15 -13 3 -33
7 -45 9 -13 2 -41 9 -63 15 -22 5 -65 13 -95 16 -96 10 -115 12 -130 18 -8 3
-49 8 -90 11 -41 3 -91 9 -110 12 -19 3 -73 7 -120 8 -47 2 -105 6 -130 9
-115 16 -538 26 -559 13 -5 -4 -12 0 -14 6 -4 8 -6 9 -6 2z"/>
</g>
</svg>
